<?xml version="1.0" encoding="UTF-8"?>
<!DOCTYPE svg PUBLIC "-//W3C//DTD SVG 1.1//EN" "http://www.w3.org/Graphics/SVG/1.1/DTD/svg11.dtd">
<!-- Creator: CorelDRAW 2021 (64-Bit) -->
<svg xmlns="http://www.w3.org/2000/svg" xml:space="preserve" width="169.333mm" height="169.333mm" version="1.1" style="shape-rendering:geometricPrecision; text-rendering:geometricPrecision; image-rendering:optimizeQuality; fill-rule:evenodd; clip-rule:evenodd"
viewBox="0 0 16933.32 16933.32"
 xmlns:xlink="http://www.w3.org/1999/xlink"
 xmlns:xodm="http://www.corel.com/coreldraw/odm/2003">
 <defs>
  <style type="text/css">
   <![CDATA[
    .fil0 {fill:#FFFFFF}
   ]]>
  </style>
 </defs>
 <g id="Layer_x0020_1">
  <metadata id="CorelCorpID_0Corel-Layer"/>
  <path class="fil0" d="M5121.29 6985.95l-2900.94 0 -307.95 1740.83 -1160.15 0 1021.87 -5801.92 4059.87 0 -712.7 4061.09zm5759.82 1955.65l-7001.66 0 -969.37 5532.37 8871.6 0 -223 1274.03 -8871.84 0 -1270.05 0 -4.02 0 1415.86 -8080.46 1274.06 0 6999.87 0 -221.45 1274.06zm4789.65 3568.09l-203.64 1160.14 -3190.05 0 203.61 -1160.14 1641.54 0 -1334.84 -1740.83 203.61 -1160.11 3190.08 0 -202.39 1160.11 -1636.48 0 1328.56 1740.83zm-5784.32 -1740.83l-510.31 2900.97 -1160.14 0 713.91 -4061.08 3190.08 0c81.7,0 145.77,27.66 191.03,84.21 46.51,56.54 64.1,124.45 52.78,206.15l-307.92 1740.79 -1160.14 0 150.82 -871.04 -1160.11 0zm-4072.41 1740.83c240.08,0 460.03,-85.47 661.13,-255.14 201.1,-170.96 323.04,-375.82 365.75,-614.65 42.75,-240.05 -7.52,-444.95 -148.31,-615.87 -140.76,-169.67 -331.82,-255.17 -570.62,-255.17 -240.08,0 -460.03,85.5 -658.62,255.17 -199.88,170.92 -320.53,375.82 -363.28,615.87 -42.71,238.83 6.31,443.69 145.81,614.65 138.28,169.67 328.05,255.14 568.14,255.14zm1293.37 -2384.37l86.72 -516.57 1160.15 0 -712.69 4061.08 -1160.12 0 92.99 -516.57c-387.11,344.39 -804.42,516.57 -1253.13,516.57 -480.14,0 -854.7,-198.59 -1126.21,-594.51 -270.23,-395.93 -355.69,-874.8 -255.14,-1435.42 96.79,-561.83 350.67,-1039.46 760.42,-1436.64 409.76,-395.92 854.71,-594.51 1333.59,-594.51 448.74,0 806.93,172.18 1073.42,516.57zm2277.55 -4299.52c240.08,0 460.03,-85.46 661.13,-255.14 201.1,-170.96 323.04,-375.82 365.75,-614.65 42.75,-240.05 -7.52,-444.94 -148.31,-615.87 -140.76,-169.67 -331.82,-255.17 -570.62,-255.17 -240.08,0 -460.03,85.5 -658.62,255.17 -199.88,170.93 -320.53,375.82 -363.28,615.87 -42.71,238.83 6.31,443.69 145.81,614.65 138.28,169.68 328.05,255.14 568.14,255.14zm1293.37 -2384.36l86.72 -516.58 1160.15 0 -712.69 4061.09 -1160.12 0 92.99 -516.58c-387.11,344.4 -804.42,516.58 -1253.13,516.58 -480.14,0 -854.7,-198.59 -1126.21,-594.52 -270.23,-395.92 -355.69,-874.8 -255.14,-1435.42 96.79,-561.83 350.67,-1039.46 760.42,-1436.64 409.76,-395.92 854.71,-594.51 1333.59,-594.51 448.74,0 806.93,172.18 1073.42,516.58zm-4977.42 3544.51l1020.61 -5800.67 1160.15 0 -1020.61 5800.67 -1160.15 0zm-2970.24 -2900.98l-306.7 1740.83 1739.58 0 307.95 -1740.83 -1740.83 0z"/>
 </g>
</svg>
